<svg width="148" height="37" viewBox="0 0 148 37" fill="none" xmlns="http://www.w3.org/2000/svg">
<circle cx="18" cy="18" r="18" transform="rotate(90 18 18)" fill="#7CCBE0"/>
<circle cx="18" cy="18" r="17.5" transform="rotate(90 18 18)" stroke="black" stroke-opacity="0.1"/>
<path fill-rule="evenodd" clip-rule="evenodd" d="M23.4983 19.9417C23.1997 19.7975 21.7317 19.1006 21.458 19.0045C21.1843 18.9084 20.9853 18.8603 20.7862 19.1487C20.5872 19.4371 20.0149 20.0859 19.8407 20.2782C19.6666 20.4704 19.4924 20.4945 19.1939 20.3503C18.8953 20.2061 17.9332 19.9019 16.7927 18.9205C15.9051 18.1567 15.3059 17.2133 15.1317 16.925C14.9575 16.6366 15.1131 16.4807 15.2626 16.3371C15.3969 16.2081 15.5612 16.0007 15.7105 15.8324C15.8598 15.6642 15.9095 15.5441 16.0091 15.3518C16.1086 15.1596 16.0588 14.9913 15.9842 14.8472C15.9095 14.703 15.3124 13.2851 15.0636 12.7084C14.8212 12.1467 14.5751 12.2227 14.3918 12.2139C14.2178 12.2055 14.0186 12.2037 13.8195 12.2037C13.6205 12.2037 13.297 12.2759 13.0233 12.5642C12.7496 12.8526 11.9783 13.5495 11.9783 14.9673C11.9783 16.3852 13.0482 17.7549 13.1975 17.9472C13.3468 18.1395 15.3029 21.049 18.2981 22.2968C19.0105 22.5936 19.5667 22.7708 20.0003 22.9036C20.7156 23.1228 21.3665 23.0919 21.881 23.0177C22.4546 22.935 23.6476 22.3208 23.8964 21.648C24.1452 20.9751 24.1452 20.3983 24.0705 20.2782C23.9959 20.158 23.7969 20.0859 23.4983 19.9417ZM18.0501 27.1182H18.0461C16.2638 27.1175 14.5158 26.6556 12.9909 25.7826L12.6282 25.5748L8.86903 26.5262L9.87242 22.9903L9.63623 22.6278C8.64202 21.1022 8.11693 19.3388 8.11768 17.5283C8.11986 12.2451 12.5755 7.94689 18.054 7.94689C20.7069 7.94789 23.2007 8.94591 25.0759 10.757C26.9511 12.5682 27.9833 14.9757 27.9822 17.5361C27.98 22.8196 23.5245 27.1182 18.0501 27.1182ZM26.5032 9.3808C24.2471 7.20168 21.2468 6.00103 18.0501 5.99981C11.4635 5.99981 6.10286 11.1712 6.10022 17.5276C6.09936 19.5595 6.64959 21.5429 7.69528 23.2911L6 29.2651L12.3348 27.6621C14.0802 28.5805 16.0453 29.0644 18.0453 29.0653H18.0502H18.0503C24.6362 29.0653 29.9973 23.8933 30 17.5368C30.0012 14.4564 28.7594 11.5599 26.5032 9.3808Z" fill="#063643"/>
<circle cx="74" cy="18.021" r="18" transform="rotate(90 74 18.021)" fill="#7CCBE0"/>
<circle cx="74" cy="18.021" r="17.5" transform="rotate(90 74 18.021)" stroke="black" stroke-opacity="0.1"/>
<path d="M79.6361 13.021H79.6477M71 28.021H77C82 28.021 84 26.021 84 21.021V15.021C84 10.021 82 8.021 77 8.021H71C66 8.021 64 10.021 64 15.021V21.021C64 26.021 66 28.021 71 28.021ZM77.5 18.021C77.5 19.954 75.933 21.521 74 21.521C72.067 21.521 70.5 19.954 70.5 18.021C70.5 16.088 72.067 14.521 74 14.521C75.933 14.521 77.5 16.088 77.5 18.021Z" stroke="#063643" stroke-width="1.5" stroke-linecap="round" stroke-linejoin="round"/>
<circle cx="130" cy="18.042" r="18" transform="rotate(90 130 18.042)" fill="#7CCBE0"/>
<circle cx="130" cy="18.042" r="17.5" transform="rotate(90 130 18.042)" stroke="black" stroke-opacity="0.1"/>
<path d="M135.5 8.87537H132.75C131.535 8.87537 130.369 9.35825 129.509 10.2178C128.65 11.0773 128.167 12.2431 128.167 13.4587V16.2087H125.417V19.8754H128.167V27.2087H131.833V19.8754H134.583L135.5 16.2087H131.833V13.4587C131.833 13.2156 131.93 12.9824 132.102 12.8105C132.274 12.6386 132.507 12.542 132.75 12.542H135.5V8.87537Z" stroke="#063643" stroke-width="1.5" stroke-linecap="round" stroke-linejoin="round"/>
</svg>
