<svg width="1920" height="39" viewBox="0 0 1920 39" fill="none" xmlns="http://www.w3.org/2000/svg">
<rect width="1920" height="40" fill="#063643"/>
<path d="M827.76 15.576V20.616C827.76 21.12 827.884 21.508 828.132 21.78C828.38 22.052 828.744 22.188 829.224 22.188C829.704 22.188 830.072 22.052 830.328 21.78C830.584 21.508 830.712 21.12 830.712 20.616V15.576H832.764V20.604C832.764 21.356 832.604 21.992 832.284 22.512C831.964 23.032 831.532 23.424 830.988 23.688C830.452 23.952 829.852 24.084 829.188 24.084C828.524 24.084 827.928 23.956 827.4 23.7C826.88 23.436 826.468 23.044 826.164 22.524C825.86 21.996 825.708 21.356 825.708 20.604V15.576H827.76ZM841.741 24H839.689L836.257 18.804V24H834.205V15.576H836.257L839.689 20.796V15.576H841.741V24ZM845.28 17.22V18.924H848.028V20.508H845.28V22.356H848.388V24H843.228V15.576H848.388V17.22H845.28ZM849.373 19.776C849.373 18.944 849.553 18.204 849.913 17.556C850.273 16.9 850.773 16.392 851.413 16.032C852.061 15.664 852.793 15.48 853.609 15.48C854.609 15.48 855.465 15.744 856.177 16.272C856.889 16.8 857.365 17.52 857.605 18.432H855.349C855.181 18.08 854.941 17.812 854.629 17.628C854.325 17.444 853.977 17.352 853.585 17.352C852.953 17.352 852.441 17.572 852.049 18.012C851.657 18.452 851.461 19.04 851.461 19.776C851.461 20.512 851.657 21.1 852.049 21.54C852.441 21.98 852.953 22.2 853.585 22.2C853.977 22.2 854.325 22.108 854.629 21.924C854.941 21.74 855.181 21.472 855.349 21.12H857.605C857.365 22.032 856.889 22.752 856.177 23.28C855.465 23.8 854.609 24.06 853.609 24.06C852.793 24.06 852.061 23.88 851.413 23.52C850.773 23.152 850.273 22.644 849.913 21.996C849.553 21.348 849.373 20.608 849.373 19.776ZM864.921 15.576V17.22H862.689V24H860.637V17.22H858.405V15.576H864.921ZM873.774 15.576V21.312C873.774 22.2 873.522 22.884 873.018 23.364C872.522 23.844 871.85 24.084 871.002 24.084C870.114 24.084 869.402 23.832 868.866 23.328C868.33 22.824 868.062 22.108 868.062 21.18H870.102C870.102 21.532 870.174 21.8 870.318 21.984C870.462 22.16 870.67 22.248 870.942 22.248C871.19 22.248 871.382 22.168 871.518 22.008C871.654 21.848 871.722 21.616 871.722 21.312V15.576H873.774ZM879.728 24L877.976 20.82H877.484V24H875.432V15.576H878.876C879.54 15.576 880.104 15.692 880.568 15.924C881.04 16.156 881.392 16.476 881.624 16.884C881.856 17.284 881.972 17.732 881.972 18.228C881.972 18.788 881.812 19.288 881.492 19.728C881.18 20.168 880.716 20.48 880.1 20.664L882.044 24H879.728ZM877.484 19.368H878.756C879.132 19.368 879.412 19.276 879.596 19.092C879.788 18.908 879.884 18.648 879.884 18.312C879.884 17.992 879.788 17.74 879.596 17.556C879.412 17.372 879.132 17.28 878.756 17.28H877.484V19.368ZM890.963 18.936V20.64H885.683V18.936H890.963ZM901.367 15.576V17.22H899.135V24H897.083V17.22H894.851V15.576H901.367ZM906.38 24.084C905.588 24.084 904.86 23.9 904.196 23.532C903.54 23.164 903.016 22.652 902.624 21.996C902.24 21.332 902.048 20.588 902.048 19.764C902.048 18.94 902.24 18.2 902.624 17.544C903.016 16.888 903.54 16.376 904.196 16.008C904.86 15.64 905.588 15.456 906.38 15.456C907.172 15.456 907.896 15.64 908.552 16.008C909.216 16.376 909.736 16.888 910.112 17.544C910.496 18.2 910.688 18.94 910.688 19.764C910.688 20.588 910.496 21.332 910.112 21.996C909.728 22.652 909.208 23.164 908.552 23.532C907.896 23.9 907.172 24.084 906.38 24.084ZM906.38 22.212C907.052 22.212 907.588 21.988 907.988 21.54C908.396 21.092 908.6 20.5 908.6 19.764C908.6 19.02 908.396 18.428 907.988 17.988C907.588 17.54 907.052 17.316 906.38 17.316C905.7 17.316 905.156 17.536 904.748 17.976C904.348 18.416 904.148 19.012 904.148 19.764C904.148 20.508 904.348 21.104 904.748 21.552C905.156 21.992 905.7 22.212 906.38 22.212ZM914.986 15.576C915.874 15.576 916.65 15.752 917.314 16.104C917.978 16.456 918.49 16.952 918.85 17.592C919.218 18.224 919.402 18.956 919.402 19.788C919.402 20.612 919.218 21.344 918.85 21.984C918.49 22.624 917.974 23.12 917.302 23.472C916.638 23.824 915.866 24 914.986 24H911.83V15.576H914.986ZM914.854 22.224C915.63 22.224 916.234 22.012 916.666 21.588C917.098 21.164 917.314 20.564 917.314 19.788C917.314 19.012 917.098 18.408 916.666 17.976C916.234 17.544 915.63 17.328 914.854 17.328H913.882V22.224H914.854ZM924.533 24.084C923.741 24.084 923.013 23.9 922.349 23.532C921.693 23.164 921.169 22.652 920.777 21.996C920.393 21.332 920.201 20.588 920.201 19.764C920.201 18.94 920.393 18.2 920.777 17.544C921.169 16.888 921.693 16.376 922.349 16.008C923.013 15.64 923.741 15.456 924.533 15.456C925.325 15.456 926.049 15.64 926.705 16.008C927.369 16.376 927.889 16.888 928.265 17.544C928.649 18.2 928.841 18.94 928.841 19.764C928.841 20.588 928.649 21.332 928.265 21.996C927.881 22.652 927.361 23.164 926.705 23.532C926.049 23.9 925.325 24.084 924.533 24.084ZM924.533 22.212C925.205 22.212 925.741 21.988 926.141 21.54C926.549 21.092 926.753 20.5 926.753 19.764C926.753 19.02 926.549 18.428 926.141 17.988C925.741 17.54 925.205 17.316 924.533 17.316C923.853 17.316 923.309 17.536 922.901 17.976C922.501 18.416 922.301 19.012 922.301 19.764C922.301 20.508 922.501 21.104 922.901 21.552C923.309 21.992 923.853 22.212 924.533 22.212ZM933.03 24.084C932.414 24.084 931.862 23.984 931.374 23.784C930.886 23.584 930.494 23.288 930.198 22.896C929.91 22.504 929.758 22.032 929.742 21.48H931.926C931.958 21.792 932.066 22.032 932.25 22.2C932.434 22.36 932.674 22.44 932.97 22.44C933.274 22.44 933.514 22.372 933.69 22.236C933.866 22.092 933.954 21.896 933.954 21.648C933.954 21.44 933.882 21.268 933.738 21.132C933.602 20.996 933.43 20.884 933.222 20.796C933.022 20.708 932.734 20.608 932.358 20.496C931.814 20.328 931.37 20.16 931.026 19.992C930.682 19.824 930.386 19.576 930.138 19.248C929.89 18.92 929.766 18.492 929.766 17.964C929.766 17.18 930.05 16.568 930.618 16.128C931.186 15.68 931.926 15.456 932.838 15.456C933.766 15.456 934.514 15.68 935.082 16.128C935.65 16.568 935.954 17.184 935.994 17.976H933.774C933.758 17.704 933.658 17.492 933.474 17.34C933.29 17.18 933.054 17.1 932.766 17.1C932.518 17.1 932.318 17.168 932.166 17.304C932.014 17.432 931.938 17.62 931.938 17.868C931.938 18.14 932.066 18.352 932.322 18.504C932.578 18.656 932.978 18.82 933.522 18.996C934.066 19.18 934.506 19.356 934.842 19.524C935.186 19.692 935.482 19.936 935.73 20.256C935.978 20.576 936.102 20.988 936.102 21.492C936.102 21.972 935.978 22.408 935.73 22.8C935.49 23.192 935.138 23.504 934.674 23.736C934.21 23.968 933.662 24.084 933.03 24.084ZM943.892 24.084C943.1 24.084 942.372 23.9 941.708 23.532C941.052 23.164 940.528 22.652 940.136 21.996C939.752 21.332 939.56 20.588 939.56 19.764C939.56 18.94 939.752 18.2 940.136 17.544C940.528 16.888 941.052 16.376 941.708 16.008C942.372 15.64 943.1 15.456 943.892 15.456C944.684 15.456 945.408 15.64 946.064 16.008C946.728 16.376 947.248 16.888 947.624 17.544C948.008 18.2 948.2 18.94 948.2 19.764C948.2 20.588 948.008 21.332 947.624 21.996C947.24 22.652 946.72 23.164 946.064 23.532C945.408 23.9 944.684 24.084 943.892 24.084ZM943.892 22.212C944.564 22.212 945.1 21.988 945.5 21.54C945.908 21.092 946.112 20.5 946.112 19.764C946.112 19.02 945.908 18.428 945.5 17.988C945.1 17.54 944.564 17.316 943.892 17.316C943.212 17.316 942.668 17.536 942.26 17.976C941.86 18.416 941.66 19.012 941.66 19.764C941.66 20.508 941.86 21.104 942.26 21.552C942.668 21.992 943.212 22.212 943.892 22.212ZM952.39 24.084C951.774 24.084 951.222 23.984 950.734 23.784C950.246 23.584 949.854 23.288 949.558 22.896C949.27 22.504 949.118 22.032 949.102 21.48H951.286C951.318 21.792 951.426 22.032 951.61 22.2C951.794 22.36 952.034 22.44 952.33 22.44C952.634 22.44 952.874 22.372 953.05 22.236C953.226 22.092 953.314 21.896 953.314 21.648C953.314 21.44 953.242 21.268 953.098 21.132C952.962 20.996 952.79 20.884 952.582 20.796C952.382 20.708 952.094 20.608 951.718 20.496C951.174 20.328 950.73 20.16 950.386 19.992C950.042 19.824 949.746 19.576 949.498 19.248C949.25 18.92 949.126 18.492 949.126 17.964C949.126 17.18 949.41 16.568 949.978 16.128C950.546 15.68 951.286 15.456 952.198 15.456C953.126 15.456 953.874 15.68 954.442 16.128C955.01 16.568 955.314 17.184 955.354 17.976H953.134C953.118 17.704 953.018 17.492 952.834 17.34C952.65 17.18 952.414 17.1 952.126 17.1C951.878 17.1 951.678 17.168 951.526 17.304C951.374 17.432 951.298 17.62 951.298 17.868C951.298 18.14 951.426 18.352 951.682 18.504C951.938 18.656 952.338 18.82 952.882 18.996C953.426 19.18 953.866 19.356 954.202 19.524C954.546 19.692 954.842 19.936 955.09 20.256C955.338 20.576 955.462 20.988 955.462 21.492C955.462 21.972 955.338 22.408 955.09 22.8C954.85 23.192 954.498 23.504 954.034 23.736C953.57 23.968 953.022 24.084 952.39 24.084ZM962.423 15.576C963.311 15.576 964.087 15.752 964.751 16.104C965.415 16.456 965.927 16.952 966.287 17.592C966.655 18.224 966.839 18.956 966.839 19.788C966.839 20.612 966.655 21.344 966.287 21.984C965.927 22.624 965.411 23.12 964.739 23.472C964.075 23.824 963.303 24 962.423 24H959.267V15.576H962.423ZM962.291 22.224C963.067 22.224 963.671 22.012 964.103 21.588C964.535 21.164 964.751 20.564 964.751 19.788C964.751 19.012 964.535 18.408 964.103 17.976C963.671 17.544 963.067 17.328 962.291 17.328H961.319V22.224H962.291ZM970.038 15.576V24H967.986V15.576H970.038ZM975.821 24L974.069 20.82H973.577V24H971.525V15.576H974.969C975.633 15.576 976.197 15.692 976.661 15.924C977.133 16.156 977.485 16.476 977.717 16.884C977.949 17.284 978.065 17.732 978.065 18.228C978.065 18.788 977.905 19.288 977.585 19.728C977.273 20.168 976.809 20.48 976.193 20.664L978.137 24H975.821ZM973.577 19.368H974.849C975.225 19.368 975.505 19.276 975.689 19.092C975.881 18.908 975.977 18.648 975.977 18.312C975.977 17.992 975.881 17.74 975.689 17.556C975.505 17.372 975.225 17.28 974.849 17.28H973.577V19.368ZM981.405 17.22V18.924H984.153V20.508H981.405V22.356H984.513V24H979.353V15.576H984.513V17.22H981.405ZM987.898 15.576V24H985.846V15.576H987.898ZM995.445 15.576V17.22H993.213V24H991.161V17.22H988.929V15.576H995.445ZM1000.46 24.084C999.666 24.084 998.938 23.9 998.274 23.532C997.618 23.164 997.094 22.652 996.702 21.996C996.318 21.332 996.126 20.588 996.126 19.764C996.126 18.94 996.318 18.2 996.702 17.544C997.094 16.888 997.618 16.376 998.274 16.008C998.938 15.64 999.666 15.456 1000.46 15.456C1001.25 15.456 1001.97 15.64 1002.63 16.008C1003.29 16.376 1003.81 16.888 1004.19 17.544C1004.57 18.2 1004.77 18.94 1004.77 19.764C1004.77 20.588 1004.57 21.332 1004.19 21.996C1003.81 22.652 1003.29 23.164 1002.63 23.532C1001.97 23.9 1001.25 24.084 1000.46 24.084ZM1000.46 22.212C1001.13 22.212 1001.67 21.988 1002.07 21.54C1002.47 21.092 1002.68 20.5 1002.68 19.764C1002.68 19.02 1002.47 18.428 1002.07 17.988C1001.67 17.54 1001.13 17.316 1000.46 17.316C999.778 17.316 999.234 17.536 998.826 17.976C998.426 18.416 998.226 19.012 998.226 19.764C998.226 20.508 998.426 21.104 998.826 21.552C999.234 21.992 999.778 22.212 1000.46 22.212ZM1008.96 24.084C1008.34 24.084 1007.79 23.984 1007.3 23.784C1006.81 23.584 1006.42 23.288 1006.12 22.896C1005.84 22.504 1005.68 22.032 1005.67 21.48H1007.85C1007.88 21.792 1007.99 22.032 1008.18 22.2C1008.36 22.36 1008.6 22.44 1008.9 22.44C1009.2 22.44 1009.44 22.372 1009.62 22.236C1009.79 22.092 1009.88 21.896 1009.88 21.648C1009.88 21.44 1009.81 21.268 1009.66 21.132C1009.53 20.996 1009.36 20.884 1009.15 20.796C1008.95 20.708 1008.66 20.608 1008.28 20.496C1007.74 20.328 1007.3 20.16 1006.95 19.992C1006.61 19.824 1006.31 19.576 1006.06 19.248C1005.82 18.92 1005.69 18.492 1005.69 17.964C1005.69 17.18 1005.98 16.568 1006.54 16.128C1007.11 15.68 1007.85 15.456 1008.76 15.456C1009.69 15.456 1010.44 15.68 1011.01 16.128C1011.58 16.568 1011.88 17.184 1011.92 17.976H1009.7C1009.68 17.704 1009.58 17.492 1009.4 17.34C1009.22 17.18 1008.98 17.1 1008.69 17.1C1008.44 17.1 1008.24 17.168 1008.09 17.304C1007.94 17.432 1007.86 17.62 1007.86 17.868C1007.86 18.14 1007.99 18.352 1008.25 18.504C1008.5 18.656 1008.9 18.82 1009.45 18.996C1009.99 19.18 1010.43 19.356 1010.77 19.524C1011.11 19.692 1011.41 19.936 1011.66 20.256C1011.9 20.576 1012.03 20.988 1012.03 21.492C1012.03 21.972 1011.9 22.408 1011.66 22.8C1011.42 23.192 1011.06 23.504 1010.6 23.736C1010.14 23.968 1009.59 24.084 1008.96 24.084ZM1020.13 24L1018.38 20.82H1017.89V24H1015.83V15.576H1019.28C1019.94 15.576 1020.51 15.692 1020.97 15.924C1021.44 16.156 1021.79 16.476 1022.03 16.884C1022.26 17.284 1022.37 17.732 1022.37 18.228C1022.37 18.788 1022.21 19.288 1021.89 19.728C1021.58 20.168 1021.12 20.48 1020.5 20.664L1022.45 24H1020.13ZM1017.89 19.368H1019.16C1019.53 19.368 1019.81 19.276 1020 19.092C1020.19 18.908 1020.29 18.648 1020.29 18.312C1020.29 17.992 1020.19 17.74 1020 17.556C1019.81 17.372 1019.53 17.28 1019.16 17.28H1017.89V19.368ZM1025.71 17.22V18.924H1028.46V20.508H1025.71V22.356H1028.82V24H1023.66V15.576H1028.82V17.22H1025.71ZM1033.2 24.084C1032.59 24.084 1032.03 23.984 1031.55 23.784C1031.06 23.584 1030.67 23.288 1030.37 22.896C1030.08 22.504 1029.93 22.032 1029.91 21.48H1032.1C1032.13 21.792 1032.24 22.032 1032.42 22.2C1032.61 22.36 1032.85 22.44 1033.14 22.44C1033.45 22.44 1033.69 22.372 1033.86 22.236C1034.04 22.092 1034.13 21.896 1034.13 21.648C1034.13 21.44 1034.05 21.268 1033.91 21.132C1033.77 20.996 1033.6 20.884 1033.39 20.796C1033.19 20.708 1032.91 20.608 1032.53 20.496C1031.99 20.328 1031.54 20.16 1031.2 19.992C1030.85 19.824 1030.56 19.576 1030.31 19.248C1030.06 18.92 1029.94 18.492 1029.94 17.964C1029.94 17.18 1030.22 16.568 1030.79 16.128C1031.36 15.68 1032.1 15.456 1033.01 15.456C1033.94 15.456 1034.69 15.68 1035.25 16.128C1035.82 16.568 1036.13 17.184 1036.17 17.976H1033.95C1033.93 17.704 1033.83 17.492 1033.65 17.34C1033.46 17.18 1033.23 17.1 1032.94 17.1C1032.69 17.1 1032.49 17.168 1032.34 17.304C1032.19 17.432 1032.11 17.62 1032.11 17.868C1032.11 18.14 1032.24 18.352 1032.49 18.504C1032.75 18.656 1033.15 18.82 1033.69 18.996C1034.24 19.18 1034.68 19.356 1035.01 19.524C1035.36 19.692 1035.65 19.936 1035.9 20.256C1036.15 20.576 1036.27 20.988 1036.27 21.492C1036.27 21.972 1036.15 22.408 1035.9 22.8C1035.66 23.192 1035.31 23.504 1034.85 23.736C1034.38 23.968 1033.83 24.084 1033.2 24.084ZM1039.59 17.22V18.924H1042.34V20.508H1039.59V22.356H1042.7V24H1037.54V15.576H1042.7V17.22H1039.59ZM1048.33 24L1046.57 20.82H1046.08V24H1044.03V15.576H1047.47C1048.14 15.576 1048.7 15.692 1049.17 15.924C1049.64 16.156 1049.99 16.476 1050.22 16.884C1050.45 17.284 1050.57 17.732 1050.57 18.228C1050.57 18.788 1050.41 19.288 1050.09 19.728C1049.78 20.168 1049.31 20.48 1048.7 20.664L1050.64 24H1048.33ZM1046.08 19.368H1047.35C1047.73 19.368 1048.01 19.276 1048.19 19.092C1048.39 18.908 1048.48 18.648 1048.48 18.312C1048.48 17.992 1048.39 17.74 1048.19 17.556C1048.01 17.372 1047.73 17.28 1047.35 17.28H1046.08V19.368ZM1059.77 15.576L1056.78 24H1054.21L1051.22 15.576H1053.41L1055.49 21.936L1057.59 15.576H1059.77ZM1065.87 22.512H1062.72L1062.22 24H1060.07L1063.12 15.576H1065.49L1068.54 24H1066.37L1065.87 22.512ZM1065.34 20.928L1064.29 17.844L1063.26 20.928H1065.34ZM1072.63 15.576C1073.51 15.576 1074.29 15.752 1074.95 16.104C1075.62 16.456 1076.13 16.952 1076.49 17.592C1076.86 18.224 1077.04 18.956 1077.04 19.788C1077.04 20.612 1076.86 21.344 1076.49 21.984C1076.13 22.624 1075.61 23.12 1074.94 23.472C1074.28 23.824 1073.51 24 1072.63 24H1069.47V15.576H1072.63ZM1072.49 22.224C1073.27 22.224 1073.87 22.012 1074.31 21.588C1074.74 21.164 1074.95 20.564 1074.95 19.788C1074.95 19.012 1074.74 18.408 1074.31 17.976C1073.87 17.544 1073.27 17.328 1072.49 17.328H1071.52V22.224H1072.49ZM1082.17 24.084C1081.38 24.084 1080.65 23.9 1079.99 23.532C1079.33 23.164 1078.81 22.652 1078.42 21.996C1078.03 21.332 1077.84 20.588 1077.84 19.764C1077.84 18.94 1078.03 18.2 1078.42 17.544C1078.81 16.888 1079.33 16.376 1079.99 16.008C1080.65 15.64 1081.38 15.456 1082.17 15.456C1082.97 15.456 1083.69 15.64 1084.35 16.008C1085.01 16.376 1085.53 16.888 1085.91 17.544C1086.29 18.2 1086.48 18.94 1086.48 19.764C1086.48 20.588 1086.29 21.332 1085.91 21.996C1085.52 22.652 1085 23.164 1084.35 23.532C1083.69 23.9 1082.97 24.084 1082.17 24.084ZM1082.17 22.212C1082.85 22.212 1083.38 21.988 1083.78 21.54C1084.19 21.092 1084.39 20.5 1084.39 19.764C1084.39 19.02 1084.19 18.428 1083.78 17.988C1083.38 17.54 1082.85 17.316 1082.17 17.316C1081.49 17.316 1080.95 17.536 1080.54 17.976C1080.14 18.416 1079.94 19.012 1079.94 19.764C1079.94 20.508 1080.14 21.104 1080.54 21.552C1080.95 21.992 1081.49 22.212 1082.17 22.212ZM1090.67 24.084C1090.05 24.084 1089.5 23.984 1089.01 23.784C1088.53 23.584 1088.13 23.288 1087.84 22.896C1087.55 22.504 1087.4 22.032 1087.38 21.48H1089.57C1089.6 21.792 1089.71 22.032 1089.89 22.2C1090.07 22.36 1090.31 22.44 1090.61 22.44C1090.91 22.44 1091.15 22.372 1091.33 22.236C1091.51 22.092 1091.59 21.896 1091.59 21.648C1091.59 21.44 1091.52 21.268 1091.38 21.132C1091.24 20.996 1091.07 20.884 1090.86 20.796C1090.66 20.708 1090.37 20.608 1090 20.496C1089.45 20.328 1089.01 20.16 1088.67 19.992C1088.32 19.824 1088.03 19.576 1087.78 19.248C1087.53 18.92 1087.41 18.492 1087.41 17.964C1087.41 17.18 1087.69 16.568 1088.26 16.128C1088.83 15.68 1089.57 15.456 1090.48 15.456C1091.41 15.456 1092.15 15.68 1092.72 16.128C1093.29 16.568 1093.59 17.184 1093.63 17.976H1091.41C1091.4 17.704 1091.3 17.492 1091.11 17.34C1090.93 17.18 1090.69 17.1 1090.41 17.1C1090.16 17.1 1089.96 17.168 1089.81 17.304C1089.65 17.432 1089.58 17.62 1089.58 17.868C1089.58 18.14 1089.71 18.352 1089.96 18.504C1090.22 18.656 1090.62 18.82 1091.16 18.996C1091.71 19.18 1092.15 19.356 1092.48 19.524C1092.83 19.692 1093.12 19.936 1093.37 20.256C1093.62 20.576 1093.74 20.988 1093.74 21.492C1093.74 21.972 1093.62 22.408 1093.37 22.8C1093.13 23.192 1092.78 23.504 1092.31 23.736C1091.85 23.968 1091.3 24.084 1090.67 24.084Z" fill="#E2F5FA"/>
</svg>
