<svg width="121" height="196" viewBox="0 0 121 196" fill="none" xmlns="http://www.w3.org/2000/svg">
<g clip-path="url(#clip0_1215_143)">
<path d="M7.16141 0.397446C6.74867 0.687897 6.45822 1.10063 6.04549 1.98726L5.49517 3.17961L4.8837 3.10318C4.07351 2.99617 3.46205 3.27133 2.75886 4.08153C1.76523 5.19745 1.6888 5.94649 2.30026 8.05605C2.4837 8.6828 2.4837 8.71338 2.07096 9.03439C1.58179 9.41655 0.90918 10.4255 0.90918 10.7771C0.90918 11.4497 1.74994 12.5656 3.41619 14.1401C4.39453 15.042 5.18944 15.8981 5.18944 16.0357C5.18944 16.5707 5.66332 17.8395 6.09135 18.5121C6.35122 18.879 7.23784 19.9338 8.09389 20.851C10.1576 23.0675 10.2646 23.2815 10.3869 25.7732L10.4786 27.7605L11.2582 29.442L12.0378 31.1083L12.1448 33.9363C12.4812 44.1478 14.178 53.4268 17.327 62.2166C19.1308 67.3223 20.4913 70.2726 24.4047 77.6866C28.4404 85.3452 30.0149 88.0509 31.299 89.4573L31.8493 90.0688L31.6506 91.1541C30.4888 97.6509 30.3359 99.1949 30.3359 104.713C30.3359 108.734 30.3971 109.697 30.6875 111.669C31.2837 115.72 32.1398 118.701 33.6531 122.064C34.5703 124.112 36.4506 127.643 37.3525 129.004L38.0251 130.013L37.7958 131.618C37.6124 132.902 37.5971 134.003 37.6888 137.121C37.9334 144.459 37.8875 145.223 37.1691 148.204C34.1117 160.769 32.1092 174.894 32.0939 183.898C32.0939 185.121 32.0327 186.191 31.9716 186.283C31.9105 186.375 31.513 186.573 31.0697 186.711C29.3729 187.276 27.5079 188.805 26.7741 190.242C26.3003 191.19 26.2391 192.566 26.6519 193.361C27.0646 194.155 28.0429 195.134 28.7308 195.439C29.3423 195.715 29.3729 195.715 30.3054 195.378C31.1156 195.103 31.3449 195.073 31.7576 195.225C32.0786 195.332 32.6136 195.363 33.2098 195.287C33.7296 195.241 34.4022 195.195 34.6926 195.21C37.5665 195.287 37.6582 195.287 38.4226 194.904C39.6761 194.293 41.1742 192.749 41.8468 191.404L42.4124 190.257L42.3665 186.848C42.3359 184.326 42.3971 183.057 42.5652 181.941C42.8251 180.352 43.9716 175.185 44.0939 175.047C44.1398 175.017 44.3691 175.154 44.5984 175.383C45.1792 175.934 46.3105 176.469 47.8697 176.927C49.4901 177.386 49.5512 177.417 49.4442 177.799C49.3678 178.028 49.4442 178.135 49.8417 178.273C50.1168 178.364 51.0952 178.808 51.9971 179.266C53.3423 179.924 53.648 180.122 53.5869 180.352C53.5257 180.535 53.6633 180.703 54.0761 180.948C54.3818 181.116 55.192 181.727 55.8646 182.293C56.5372 182.859 57.2557 183.439 57.4697 183.592C57.6837 183.745 57.7907 183.929 57.7296 183.99C57.6684 184.066 56.6748 184.158 55.5283 184.219L53.434 184.326L52.0124 185.045C49.7958 186.161 48.6952 187.613 48.6952 189.401C48.6799 190.395 49.0162 191.052 49.857 191.74C50.5754 192.321 51.8748 192.443 53.3882 192.092C54.1219 191.924 55.1767 191.847 56.9347 191.847H59.4264L59.6098 192.397C59.8238 193.055 60.5576 193.911 61.1538 194.232C61.4442 194.369 62.071 194.446 63.0799 194.446C64.1958 194.446 64.6697 194.507 64.9296 194.69C65.7856 195.287 68.5678 195.516 71.1512 195.195C71.8238 195.103 79.3907 194.981 87.9665 194.92C98.606 194.828 103.926 194.736 104.705 194.614C108.451 194.033 109.689 193.804 110.132 193.62C111.416 193.085 112.807 190.93 114.351 187.093C114.947 185.625 115.544 184.341 115.681 184.25C115.819 184.143 116.17 184.051 116.476 184.051C117.195 184.051 117.439 183.837 117.775 182.904C117.928 182.476 118.586 180.963 119.243 179.526C119.916 178.089 120.527 176.545 120.634 176.087C121.047 174.283 120.787 171.898 119.747 167.648C119.167 165.294 119.121 164.53 119.472 163.552C119.61 163.185 119.717 162.39 119.732 161.809C119.732 160.632 119.09 158.201 117.378 152.927C116.354 149.778 116.231 149.564 112.074 144.031C106.326 136.372 104.002 132.657 103.314 129.952C102.993 128.668 102.81 128.377 100.119 124.586C98.0098 121.62 96.0531 119.312 93.3168 116.561C90.2595 113.473 85.75 109.33 84.955 108.871C84.0378 108.336 82.4022 106.762 80.5831 104.637C79.7882 103.704 78.5805 102.405 77.8926 101.732C76.899 100.754 76.5933 100.326 76.3181 99.5924C75.7678 98.1401 75.4468 97.7121 74.7589 97.5287C73.9487 97.3146 73.2761 96.7337 72.8175 95.8318C72.0226 94.242 71.7933 92.1019 72.2366 90.4204C72.5729 89.121 73.9487 85.8497 76.1194 81.2484C80.1092 72.7643 81.3627 69.6459 81.7907 67.0318C82.0353 65.549 82.0047 61.4981 81.7143 57.9363C81.2557 52.2955 81.2557 52.8459 81.7601 50.9045C82.2952 48.7949 82.6009 46.2879 82.4633 45.0191C82.341 43.7503 81.9589 42.6803 81.592 42.4815C81.0264 42.1758 79.9105 42.4051 78.9168 43.0013C77.7398 43.7197 75.6455 45.5541 74.6671 46.7465C74.2544 47.2662 73.8264 47.679 73.7347 47.679C73.6429 47.6943 73.1538 47.2815 72.634 46.7924C71.8391 46.0433 71.6863 45.7987 71.6863 45.3707C71.6863 45.0955 71.5028 44.1019 71.2888 43.1847C70.6468 40.4025 70.341 38.6752 70.234 37.1924C70.1729 36.4127 70.0353 35.6637 69.9283 35.5261C69.4697 34.8841 68.7359 35.893 68.4761 37.5134C68.3843 38.1096 68.1703 39.3478 67.9869 40.2803C67.8187 41.1974 67.6353 42.6344 67.5742 43.4599C67.513 44.2701 67.406 44.9885 67.3449 45.0497C67.299 45.1108 65.6786 45.0344 63.7525 44.8815C60.1449 44.5911 58.7843 44.6217 57.164 45.0497C56.1398 45.3096 55.3907 45.7376 53.4646 47.1745C51.4162 48.7032 50.9423 48.8408 47.9767 48.7796C44.5219 48.7185 44.155 48.9325 43.8646 51.2866C43.7117 52.4943 43.5589 52.907 43.085 53.4268C42.1831 54.4204 41.8773 56.4382 42.3971 57.814C42.6417 58.4255 42.657 58.6548 42.5041 59.2204C42.4124 59.6026 42.3359 60.1834 42.3359 60.5197C42.3359 60.8713 42.3054 61.1465 42.2595 61.1465C42.2136 61.1465 41.755 60.9325 41.2353 60.6726C40.7308 60.4127 39.1257 59.7095 37.6888 59.0981C34.6009 57.7987 33.1945 57.0497 32.3843 56.2395C31.0238 54.879 29.0824 49.8038 27.7372 44.1019C25.3219 33.8599 24.9092 32.4841 22.6926 27.7452C20.8429 23.7707 20.2162 22.0739 19.9869 20.4076C19.8034 19.0471 19.513 18.4051 18.2748 16.6319C17.22 15.149 17.113 14.6293 17.113 11.0217C17.113 8.27007 17.0977 8.13248 16.7308 7.38344C16.1194 6.1758 15.0799 5.50317 13.7499 5.45732C13.1232 5.42674 13.062 5.39618 12.9245 4.92229C12.741 4.24968 11.7168 3.11847 10.7385 2.49171C10.2952 2.21655 9.83657 1.78853 9.69899 1.54395C9.42383 0.993622 8.27733 0 7.95631 0.0152893C7.81873 0.0152893 7.46714 0.183441 7.16141 0.397446Z" fill="#063643"/>
</g>
<defs>
<clipPath id="clip0_1215_143">
<rect width="120" height="195.669" fill="white" transform="translate(0.90918)"/>
</clipPath>
</defs>
</svg>
