<svg width="21" height="20" viewBox="0 0 21 20" fill="none" xmlns="http://www.w3.org/2000/svg">
<path d="M10.2469 2.26159C10.4179 1.9128 10.9122 1.9128 11.0832 2.26159L13.2976 6.77669C13.3655 6.9152 13.4968 7.0112 13.6487 7.03341L18.6001 7.75744C18.9826 7.81337 19.1353 8.28639 18.8585 8.55788L15.2757 12.0724C15.1657 12.1802 15.1156 12.3355 15.1415 12.4878L15.9873 17.4504C16.0527 17.8337 15.6528 18.126 15.3107 17.9451L10.882 15.602C10.7462 15.5302 10.5839 15.5302 10.448 15.602L6.01935 17.9451C5.67724 18.126 5.27739 17.8337 5.34273 17.4504L6.18853 12.4878C6.21448 12.3355 6.16432 12.1802 6.05442 12.0724L2.47154 8.55788C2.19476 8.28639 2.34749 7.81337 2.72998 7.75744L7.6814 7.03341C7.83329 7.0112 7.96459 6.9152 8.03252 6.77669L10.2469 2.26159Z" fill="#FFD700" stroke="#F1CB00" stroke-width="2" stroke-linejoin="round"/>
</svg>
